<svg xmlns="http://www.w3.org/2000/svg" width="1024" height="1024" viewBox="0 0 1024 1024">

  <defs>
    <radialGradient id="bg" cx="50%" cy="34%" r="82%">
      <stop offset="0%" stop-color="#2a3f8f"/><stop offset="46%" stop-color="#142158"/>
      <stop offset="100%" stop-color="#080b22"/></radialGradient>
    <radialGradient id="vig" cx="50%" cy="46%" r="72%">
      <stop offset="62%" stop-color="#000" stop-opacity="0"/>
      <stop offset="100%" stop-color="#000" stop-opacity="0.55"/></radialGradient>
    <linearGradient id="topsheen" x1="0" y1="0" x2="0" y2="1">
      <stop offset="0%" stop-color="#fff" stop-opacity="0.16"/>
      <stop offset="26%" stop-color="#fff" stop-opacity="0.04"/>
      <stop offset="55%" stop-color="#fff" stop-opacity="0"/></linearGradient>
    <filter id="dropshadow" x="-30%" y="-30%" width="160%" height="170%">
      <feDropShadow dx="0" dy="22" stdDev="26" flood-color="#000" flood-opacity="0.45"/></filter>
    <filter id="soft" x="-80%" y="-80%" width="260%" height="260%"><feGaussianBlur stdDev="34"/></filter>
    <linearGradient id="cBright" x1="0" y1="0" x2="1" y2="1">
      <stop offset="0%" stop-color="#e8fcff"/><stop offset="100%" stop-color="#46d2f4"/></linearGradient>
    <linearGradient id="cMid" x1="0" y1="0" x2="1" y2="1">
      <stop offset="0%" stop-color="#69dbf6"/><stop offset="100%" stop-color="#199ad0"/></linearGradient>
    <linearGradient id="cDark" x1="0" y1="0" x2="0" y2="1">
      <stop offset="0%" stop-color="#34b3df"/><stop offset="100%" stop-color="#1378a8"/></linearGradient>
    <linearGradient id="cDeep" x1="0" y1="0" x2="0" y2="1">
      <stop offset="0%" stop-color="#2aa6d6"/><stop offset="100%" stop-color="#11689a"/></linearGradient>
    <radialGradient id="cCore" cx="50%" cy="50%" r="52%">
      <stop offset="0%" stop-color="#fff" stop-opacity="0.95"/>
      <stop offset="42%" stop-color="#c8f4ff" stop-opacity="0.5"/>
      <stop offset="100%" stop-color="#c8f4ff" stop-opacity="0"/></radialGradient>
    <radialGradient id="cHalo" cx="50%" cy="52%" r="50%">
      <stop offset="0%" stop-color="#46e6ff" stop-opacity="0.95"/>
      <stop offset="100%" stop-color="#46e6ff" stop-opacity="0"/></radialGradient>
    <linearGradient id="gold2" x1="0" y1="0" x2="1" y2="1">
      <stop offset="0%" stop-color="#ffefb0"/><stop offset="48%" stop-color="#f3bf48"/>
      <stop offset="100%" stop-color="#aa7016"/></linearGradient>
  </defs>
  <g filter="url(#dropshadow)"><path d="M 942.00,512.00 L 941.96,605.10 L 941.84,634.84 L 941.63,656.45 L 941.34,674.03 L 940.98,689.10 L 940.52,702.44 L 939.99,714.46 L 939.37,725.47 L 938.68,735.65 L 937.89,745.13 L 937.03,754.03 L 936.08,762.42 L 935.04,770.36 L 933.93,777.90 L 932.72,785.09 L 931.43,791.96 L 930.06,798.52 L 928.60,804.82 L 927.05,810.87 L 925.41,816.68 L 923.68,822.28 L 921.86,827.67 L 919.96,832.87 L 917.96,837.88 L 915.87,842.72 L 913.68,847.39 L 911.40,851.91 L 909.02,856.27 L 906.55,860.49 L 903.97,864.57 L 901.30,868.51 L 898.52,872.33 L 895.64,876.01 L 892.65,879.57 L 889.55,883.01 L 886.34,886.34 L 883.01,889.55 L 879.57,892.65 L 876.01,895.64 L 872.33,898.52 L 868.51,901.30 L 864.57,903.97 L 860.49,906.55 L 856.27,909.02 L 851.91,911.40 L 847.39,913.68 L 842.72,915.87 L 837.88,917.96 L 832.87,919.96 L 827.67,921.86 L 822.28,923.68 L 816.68,925.41 L 810.87,927.05 L 804.82,928.60 L 798.52,930.06 L 791.96,931.43 L 785.09,932.72 L 777.90,933.93 L 770.36,935.04 L 762.42,936.08 L 754.03,937.03 L 745.13,937.89 L 735.65,938.68 L 725.47,939.37 L 714.46,939.99 L 702.44,940.52 L 689.10,940.98 L 674.03,941.34 L 656.45,941.63 L 634.84,941.84 L 605.10,941.96 L 512.00,942.00 L 418.90,941.96 L 389.16,941.84 L 367.55,941.63 L 349.97,941.34 L 334.90,940.98 L 321.56,940.52 L 309.54,939.99 L 298.53,939.37 L 288.35,938.68 L 278.87,937.89 L 269.97,937.03 L 261.58,936.08 L 253.64,935.04 L 246.10,933.93 L 238.91,932.72 L 232.04,931.43 L 225.48,930.06 L 219.18,928.60 L 213.13,927.05 L 207.32,925.41 L 201.72,923.68 L 196.33,921.86 L 191.13,919.96 L 186.12,917.96 L 181.28,915.87 L 176.61,913.68 L 172.09,911.40 L 167.73,909.02 L 163.51,906.55 L 159.43,903.97 L 155.49,901.30 L 151.67,898.52 L 147.99,895.64 L 144.43,892.65 L 140.99,889.55 L 137.66,886.34 L 134.45,883.01 L 131.35,879.57 L 128.36,876.01 L 125.48,872.33 L 122.70,868.51 L 120.03,864.57 L 117.45,860.49 L 114.98,856.27 L 112.60,851.91 L 110.32,847.39 L 108.13,842.72 L 106.04,837.88 L 104.04,832.87 L 102.14,827.67 L 100.32,822.28 L 98.59,816.68 L 96.95,810.87 L 95.40,804.82 L 93.94,798.52 L 92.57,791.96 L 91.28,785.09 L 90.07,777.90 L 88.96,770.36 L 87.92,762.42 L 86.97,754.03 L 86.11,745.13 L 85.32,735.65 L 84.63,725.47 L 84.01,714.46 L 83.48,702.44 L 83.02,689.10 L 82.66,674.03 L 82.37,656.45 L 82.16,634.84 L 82.04,605.10 L 82.00,512.00 L 82.04,418.90 L 82.16,389.16 L 82.37,367.55 L 82.66,349.97 L 83.02,334.90 L 83.48,321.56 L 84.01,309.54 L 84.63,298.53 L 85.32,288.35 L 86.11,278.87 L 86.97,269.97 L 87.92,261.58 L 88.96,253.64 L 90.07,246.10 L 91.28,238.91 L 92.57,232.04 L 93.94,225.48 L 95.40,219.18 L 96.95,213.13 L 98.59,207.32 L 100.32,201.72 L 102.14,196.33 L 104.04,191.13 L 106.04,186.12 L 108.13,181.28 L 110.32,176.61 L 112.60,172.09 L 114.98,167.73 L 117.45,163.51 L 120.03,159.43 L 122.70,155.49 L 125.48,151.67 L 128.36,147.99 L 131.35,144.43 L 134.45,140.99 L 137.66,137.66 L 140.99,134.45 L 144.43,131.35 L 147.99,128.36 L 151.67,125.48 L 155.49,122.70 L 159.43,120.03 L 163.51,117.45 L 167.73,114.98 L 172.09,112.60 L 176.61,110.32 L 181.28,108.13 L 186.12,106.04 L 191.13,104.04 L 196.33,102.14 L 201.72,100.32 L 207.32,98.59 L 213.13,96.95 L 219.18,95.40 L 225.48,93.94 L 232.04,92.57 L 238.91,91.28 L 246.10,90.07 L 253.64,88.96 L 261.58,87.92 L 269.97,86.97 L 278.87,86.11 L 288.35,85.32 L 298.53,84.63 L 309.54,84.01 L 321.56,83.48 L 334.90,83.02 L 349.97,82.66 L 367.55,82.37 L 389.16,82.16 L 418.90,82.04 L 512.00,82.00 L 605.10,82.04 L 634.84,82.16 L 656.45,82.37 L 674.03,82.66 L 689.10,83.02 L 702.44,83.48 L 714.46,84.01 L 725.47,84.63 L 735.65,85.32 L 745.13,86.11 L 754.03,86.97 L 762.42,87.92 L 770.36,88.96 L 777.90,90.07 L 785.09,91.28 L 791.96,92.57 L 798.52,93.94 L 804.82,95.40 L 810.87,96.95 L 816.68,98.59 L 822.28,100.32 L 827.67,102.14 L 832.87,104.04 L 837.88,106.04 L 842.72,108.13 L 847.39,110.32 L 851.91,112.60 L 856.27,114.98 L 860.49,117.45 L 864.57,120.03 L 868.51,122.70 L 872.33,125.48 L 876.01,128.36 L 879.57,131.35 L 883.01,134.45 L 886.34,137.66 L 889.55,140.99 L 892.65,144.43 L 895.64,147.99 L 898.52,151.67 L 901.30,155.49 L 903.97,159.43 L 906.55,163.51 L 909.02,167.73 L 911.40,172.09 L 913.68,176.61 L 915.87,181.28 L 917.96,186.12 L 919.96,191.13 L 921.86,196.33 L 923.68,201.72 L 925.41,207.32 L 927.05,213.13 L 928.60,219.18 L 930.06,225.48 L 931.43,232.04 L 932.72,238.91 L 933.93,246.10 L 935.04,253.64 L 936.08,261.58 L 937.03,269.97 L 937.89,278.87 L 938.68,288.35 L 939.37,298.53 L 939.99,309.54 L 940.52,321.56 L 940.98,334.90 L 941.34,349.97 L 941.63,367.55 L 941.84,389.16 L 941.96,418.90 Z" fill="url(#bg)"/></g>
  <clipPath id="clip"><path d="M 942.00,512.00 L 941.96,605.10 L 941.84,634.84 L 941.63,656.45 L 941.34,674.03 L 940.98,689.10 L 940.52,702.44 L 939.99,714.46 L 939.37,725.47 L 938.68,735.65 L 937.89,745.13 L 937.03,754.03 L 936.08,762.42 L 935.04,770.36 L 933.93,777.90 L 932.72,785.09 L 931.43,791.96 L 930.06,798.52 L 928.60,804.82 L 927.05,810.87 L 925.41,816.68 L 923.68,822.28 L 921.86,827.67 L 919.96,832.87 L 917.96,837.88 L 915.87,842.72 L 913.68,847.39 L 911.40,851.91 L 909.02,856.27 L 906.55,860.49 L 903.97,864.57 L 901.30,868.51 L 898.52,872.33 L 895.64,876.01 L 892.65,879.57 L 889.55,883.01 L 886.34,886.34 L 883.01,889.55 L 879.57,892.65 L 876.01,895.64 L 872.33,898.52 L 868.51,901.30 L 864.57,903.97 L 860.49,906.55 L 856.27,909.02 L 851.91,911.40 L 847.39,913.68 L 842.72,915.87 L 837.88,917.96 L 832.87,919.96 L 827.67,921.86 L 822.28,923.68 L 816.68,925.41 L 810.87,927.05 L 804.82,928.60 L 798.52,930.06 L 791.96,931.43 L 785.09,932.72 L 777.90,933.93 L 770.36,935.04 L 762.42,936.08 L 754.03,937.03 L 745.13,937.89 L 735.65,938.68 L 725.47,939.37 L 714.46,939.99 L 702.44,940.52 L 689.10,940.98 L 674.03,941.34 L 656.45,941.63 L 634.84,941.84 L 605.10,941.96 L 512.00,942.00 L 418.90,941.96 L 389.16,941.84 L 367.55,941.63 L 349.97,941.34 L 334.90,940.98 L 321.56,940.52 L 309.54,939.99 L 298.53,939.37 L 288.35,938.68 L 278.87,937.89 L 269.97,937.03 L 261.58,936.08 L 253.64,935.04 L 246.10,933.93 L 238.91,932.72 L 232.04,931.43 L 225.48,930.06 L 219.18,928.60 L 213.13,927.05 L 207.32,925.41 L 201.72,923.68 L 196.33,921.86 L 191.13,919.96 L 186.12,917.96 L 181.28,915.87 L 176.61,913.68 L 172.09,911.40 L 167.73,909.02 L 163.51,906.55 L 159.43,903.97 L 155.49,901.30 L 151.67,898.52 L 147.99,895.64 L 144.43,892.65 L 140.99,889.55 L 137.66,886.34 L 134.45,883.01 L 131.35,879.57 L 128.36,876.01 L 125.48,872.33 L 122.70,868.51 L 120.03,864.57 L 117.45,860.49 L 114.98,856.27 L 112.60,851.91 L 110.32,847.39 L 108.13,842.72 L 106.04,837.88 L 104.04,832.87 L 102.14,827.67 L 100.32,822.28 L 98.59,816.68 L 96.95,810.87 L 95.40,804.82 L 93.94,798.52 L 92.57,791.96 L 91.28,785.09 L 90.07,777.90 L 88.96,770.36 L 87.92,762.42 L 86.97,754.03 L 86.11,745.13 L 85.32,735.65 L 84.63,725.47 L 84.01,714.46 L 83.48,702.44 L 83.02,689.10 L 82.66,674.03 L 82.37,656.45 L 82.16,634.84 L 82.04,605.10 L 82.00,512.00 L 82.04,418.90 L 82.16,389.16 L 82.37,367.55 L 82.66,349.97 L 83.02,334.90 L 83.48,321.56 L 84.01,309.54 L 84.63,298.53 L 85.32,288.35 L 86.11,278.87 L 86.97,269.97 L 87.92,261.58 L 88.96,253.64 L 90.07,246.10 L 91.28,238.91 L 92.57,232.04 L 93.94,225.48 L 95.40,219.18 L 96.95,213.13 L 98.59,207.32 L 100.32,201.72 L 102.14,196.33 L 104.04,191.13 L 106.04,186.12 L 108.13,181.28 L 110.32,176.61 L 112.60,172.09 L 114.98,167.73 L 117.45,163.51 L 120.03,159.43 L 122.70,155.49 L 125.48,151.67 L 128.36,147.99 L 131.35,144.43 L 134.45,140.99 L 137.66,137.66 L 140.99,134.45 L 144.43,131.35 L 147.99,128.36 L 151.67,125.48 L 155.49,122.70 L 159.43,120.03 L 163.51,117.45 L 167.73,114.98 L 172.09,112.60 L 176.61,110.32 L 181.28,108.13 L 186.12,106.04 L 191.13,104.04 L 196.33,102.14 L 201.72,100.32 L 207.32,98.59 L 213.13,96.95 L 219.18,95.40 L 225.48,93.94 L 232.04,92.57 L 238.91,91.28 L 246.10,90.07 L 253.64,88.96 L 261.58,87.92 L 269.97,86.97 L 278.87,86.11 L 288.35,85.32 L 298.53,84.63 L 309.54,84.01 L 321.56,83.48 L 334.90,83.02 L 349.97,82.66 L 367.55,82.37 L 389.16,82.16 L 418.90,82.04 L 512.00,82.00 L 605.10,82.04 L 634.84,82.16 L 656.45,82.37 L 674.03,82.66 L 689.10,83.02 L 702.44,83.48 L 714.46,84.01 L 725.47,84.63 L 735.65,85.32 L 745.13,86.11 L 754.03,86.97 L 762.42,87.92 L 770.36,88.96 L 777.90,90.07 L 785.09,91.28 L 791.96,92.57 L 798.52,93.94 L 804.82,95.40 L 810.87,96.95 L 816.68,98.59 L 822.28,100.32 L 827.67,102.14 L 832.87,104.04 L 837.88,106.04 L 842.72,108.13 L 847.39,110.32 L 851.91,112.60 L 856.27,114.98 L 860.49,117.45 L 864.57,120.03 L 868.51,122.70 L 872.33,125.48 L 876.01,128.36 L 879.57,131.35 L 883.01,134.45 L 886.34,137.66 L 889.55,140.99 L 892.65,144.43 L 895.64,147.99 L 898.52,151.67 L 901.30,155.49 L 903.97,159.43 L 906.55,163.51 L 909.02,167.73 L 911.40,172.09 L 913.68,176.61 L 915.87,181.28 L 917.96,186.12 L 919.96,191.13 L 921.86,196.33 L 923.68,201.72 L 925.41,207.32 L 927.05,213.13 L 928.60,219.18 L 930.06,225.48 L 931.43,232.04 L 932.72,238.91 L 933.93,246.10 L 935.04,253.64 L 936.08,261.58 L 937.03,269.97 L 937.89,278.87 L 938.68,288.35 L 939.37,298.53 L 939.99,309.54 L 940.52,321.56 L 940.98,334.90 L 941.34,349.97 L 941.63,367.55 L 941.84,389.16 L 941.96,418.90 Z"/></clipPath>
  <g clip-path="url(#clip)">
    <rect width="1024" height="1024" fill="url(#bg)"/>
    
    <ellipse cx="512" cy="516" rx="322" ry="346" fill="url(#cHalo)" filter="url(#soft)"/>
    <g transform="rotate(-18 512 516)">
      <ellipse cx="512" cy="516" rx="372" ry="156" fill="none" stroke="url(#gold2)" stroke-width="13" stroke-opacity="0.97"/>
      <ellipse cx="512" cy="516" rx="372" ry="156" fill="none" stroke="#fff4cc" stroke-width="3" stroke-opacity="0.6"/>
    </g>
    <polygon points="512.0,228.0 654.0,394.0 512.0,394.0" fill="url(#cBright)"/>
    <polygon points="512.0,228.0 512.0,394.0 370.0,394.0" fill="url(#cMid)"/>
    <polygon points="370.0,394.0 512.0,394.0 338.0,562.0" fill="url(#cDark)"/>
    <polygon points="512.0,394.0 654.0,394.0 686.0,562.0" fill="url(#cMid)"/>
    <polygon points="512.0,394.0 686.0,562.0 512.0,712.0 338.0,562.0" fill="url(#cBright)" opacity="0.95"/>
    <polygon points="338.0,562.0 512.0,712.0 436.0,716.0" fill="url(#cDeep)"/>
    <polygon points="512.0,712.0 686.0,562.0 588.0,716.0" fill="url(#cDark)"/>
    <polygon points="436.0,716.0 512.0,712.0 484.0,792.0" fill="url(#cMid)" opacity="0.9"/>
    <polygon points="512.0,712.0 588.0,716.0 540.0,792.0" fill="url(#cDeep)"/>
    <polygon points="436.0,716.0 484.0,792.0 540.0,792.0 588.0,716.0" fill="url(#cBright)" opacity="0.7"/>
    <polygon points="484.0,792.0 512.0,712.0 540.0,792.0" fill="url(#cMid)" opacity="0.75"/>
    <ellipse cx="512" cy="512" rx="128" ry="188" fill="url(#cCore)"/>
    <polyline points="512.0,228.0 512.0,394.0 512.0,712.0" fill="none" stroke="#f4feff" stroke-opacity="0.5" stroke-width="3"/>
    <polyline points="370.0,394.0 512.0,228.0 654.0,394.0" fill="none" stroke="#fff" stroke-opacity="0.95" stroke-width="7"/>
    <polyline points="654.0,394.0 686.0,562.0 588.0,716.0 540.0,792.0" fill="none" stroke="#0a4669" stroke-opacity="0.4" stroke-width="4"/>
    <path d="M 707.13,352.32 L 674.97,354.73 L 659.68,383.13 L 657.27,350.97 L 628.87,335.68 L 661.03,333.27 L 676.32,304.87 L 678.73,337.03 Z" fill="#fff"/>
    <path d="M 685.61,347.74 L 671.14,348.83 L 664.26,361.61 L 663.17,347.14 L 650.39,340.26 L 664.86,339.17 L 671.74,326.39 L 672.83,340.86 Z" fill="#bfefff" opacity="0.9"/>
    <rect width="1024" height="1024" fill="url(#vig)"/>
    <path d="M 942.00,512.00 L 941.96,605.10 L 941.84,634.84 L 941.63,656.45 L 941.34,674.03 L 940.98,689.10 L 940.52,702.44 L 939.99,714.46 L 939.37,725.47 L 938.68,735.65 L 937.89,745.13 L 937.03,754.03 L 936.08,762.42 L 935.04,770.36 L 933.93,777.90 L 932.72,785.09 L 931.43,791.96 L 930.06,798.52 L 928.60,804.82 L 927.05,810.87 L 925.41,816.68 L 923.68,822.28 L 921.86,827.67 L 919.96,832.87 L 917.96,837.88 L 915.87,842.72 L 913.68,847.39 L 911.40,851.91 L 909.02,856.27 L 906.55,860.49 L 903.97,864.57 L 901.30,868.51 L 898.52,872.33 L 895.64,876.01 L 892.65,879.57 L 889.55,883.01 L 886.34,886.34 L 883.01,889.55 L 879.57,892.65 L 876.01,895.64 L 872.33,898.52 L 868.51,901.30 L 864.57,903.97 L 860.49,906.55 L 856.27,909.02 L 851.91,911.40 L 847.39,913.68 L 842.72,915.87 L 837.88,917.96 L 832.87,919.96 L 827.67,921.86 L 822.28,923.68 L 816.68,925.41 L 810.87,927.05 L 804.82,928.60 L 798.52,930.06 L 791.96,931.43 L 785.09,932.72 L 777.90,933.93 L 770.36,935.04 L 762.42,936.08 L 754.03,937.03 L 745.13,937.89 L 735.65,938.68 L 725.47,939.37 L 714.46,939.99 L 702.44,940.52 L 689.10,940.98 L 674.03,941.34 L 656.45,941.63 L 634.84,941.84 L 605.10,941.96 L 512.00,942.00 L 418.90,941.96 L 389.16,941.84 L 367.55,941.63 L 349.97,941.34 L 334.90,940.98 L 321.56,940.52 L 309.54,939.99 L 298.53,939.37 L 288.35,938.68 L 278.87,937.89 L 269.97,937.03 L 261.58,936.08 L 253.64,935.04 L 246.10,933.93 L 238.91,932.72 L 232.04,931.43 L 225.48,930.06 L 219.18,928.60 L 213.13,927.05 L 207.32,925.41 L 201.72,923.68 L 196.33,921.86 L 191.13,919.96 L 186.12,917.96 L 181.28,915.87 L 176.61,913.68 L 172.09,911.40 L 167.73,909.02 L 163.51,906.55 L 159.43,903.97 L 155.49,901.30 L 151.67,898.52 L 147.99,895.64 L 144.43,892.65 L 140.99,889.55 L 137.66,886.34 L 134.45,883.01 L 131.35,879.57 L 128.36,876.01 L 125.48,872.33 L 122.70,868.51 L 120.03,864.57 L 117.45,860.49 L 114.98,856.27 L 112.60,851.91 L 110.32,847.39 L 108.13,842.72 L 106.04,837.88 L 104.04,832.87 L 102.14,827.67 L 100.32,822.28 L 98.59,816.68 L 96.95,810.87 L 95.40,804.82 L 93.94,798.52 L 92.57,791.96 L 91.28,785.09 L 90.07,777.90 L 88.96,770.36 L 87.92,762.42 L 86.97,754.03 L 86.11,745.13 L 85.32,735.65 L 84.63,725.47 L 84.01,714.46 L 83.48,702.44 L 83.02,689.10 L 82.66,674.03 L 82.37,656.45 L 82.16,634.84 L 82.04,605.10 L 82.00,512.00 L 82.04,418.90 L 82.16,389.16 L 82.37,367.55 L 82.66,349.97 L 83.02,334.90 L 83.48,321.56 L 84.01,309.54 L 84.63,298.53 L 85.32,288.35 L 86.11,278.87 L 86.97,269.97 L 87.92,261.58 L 88.96,253.64 L 90.07,246.10 L 91.28,238.91 L 92.57,232.04 L 93.94,225.48 L 95.40,219.18 L 96.95,213.13 L 98.59,207.32 L 100.32,201.72 L 102.14,196.33 L 104.04,191.13 L 106.04,186.12 L 108.13,181.28 L 110.32,176.61 L 112.60,172.09 L 114.98,167.73 L 117.45,163.51 L 120.03,159.43 L 122.70,155.49 L 125.48,151.67 L 128.36,147.99 L 131.35,144.43 L 134.45,140.99 L 137.66,137.66 L 140.99,134.45 L 144.43,131.35 L 147.99,128.36 L 151.67,125.48 L 155.49,122.70 L 159.43,120.03 L 163.51,117.45 L 167.73,114.98 L 172.09,112.60 L 176.61,110.32 L 181.28,108.13 L 186.12,106.04 L 191.13,104.04 L 196.33,102.14 L 201.72,100.32 L 207.32,98.59 L 213.13,96.95 L 219.18,95.40 L 225.48,93.94 L 232.04,92.57 L 238.91,91.28 L 246.10,90.07 L 253.64,88.96 L 261.58,87.92 L 269.97,86.97 L 278.87,86.11 L 288.35,85.32 L 298.53,84.63 L 309.54,84.01 L 321.56,83.48 L 334.90,83.02 L 349.97,82.66 L 367.55,82.37 L 389.16,82.16 L 418.90,82.04 L 512.00,82.00 L 605.10,82.04 L 634.84,82.16 L 656.45,82.37 L 674.03,82.66 L 689.10,83.02 L 702.44,83.48 L 714.46,84.01 L 725.47,84.63 L 735.65,85.32 L 745.13,86.11 L 754.03,86.97 L 762.42,87.92 L 770.36,88.96 L 777.90,90.07 L 785.09,91.28 L 791.96,92.57 L 798.52,93.94 L 804.82,95.40 L 810.87,96.95 L 816.68,98.59 L 822.28,100.32 L 827.67,102.14 L 832.87,104.04 L 837.88,106.04 L 842.72,108.13 L 847.39,110.32 L 851.91,112.60 L 856.27,114.98 L 860.49,117.45 L 864.57,120.03 L 868.51,122.70 L 872.33,125.48 L 876.01,128.36 L 879.57,131.35 L 883.01,134.45 L 886.34,137.66 L 889.55,140.99 L 892.65,144.43 L 895.64,147.99 L 898.52,151.67 L 901.30,155.49 L 903.97,159.43 L 906.55,163.51 L 909.02,167.73 L 911.40,172.09 L 913.68,176.61 L 915.87,181.28 L 917.96,186.12 L 919.96,191.13 L 921.86,196.33 L 923.68,201.72 L 925.41,207.32 L 927.05,213.13 L 928.60,219.18 L 930.06,225.48 L 931.43,232.04 L 932.72,238.91 L 933.93,246.10 L 935.04,253.64 L 936.08,261.58 L 937.03,269.97 L 937.89,278.87 L 938.68,288.35 L 939.37,298.53 L 939.99,309.54 L 940.52,321.56 L 940.98,334.90 L 941.34,349.97 L 941.63,367.55 L 941.84,389.16 L 941.96,418.90 Z" fill="url(#topsheen)"/>
  </g>
  <path d="M 942.00,512.00 L 941.96,605.10 L 941.84,634.84 L 941.63,656.45 L 941.34,674.03 L 940.98,689.10 L 940.52,702.44 L 939.99,714.46 L 939.37,725.47 L 938.68,735.65 L 937.89,745.13 L 937.03,754.03 L 936.08,762.42 L 935.04,770.36 L 933.93,777.90 L 932.72,785.09 L 931.43,791.96 L 930.06,798.52 L 928.60,804.82 L 927.05,810.87 L 925.41,816.68 L 923.68,822.28 L 921.86,827.67 L 919.96,832.87 L 917.96,837.88 L 915.87,842.72 L 913.68,847.39 L 911.40,851.91 L 909.02,856.27 L 906.55,860.49 L 903.97,864.57 L 901.30,868.51 L 898.52,872.33 L 895.64,876.01 L 892.65,879.57 L 889.55,883.01 L 886.34,886.34 L 883.01,889.55 L 879.57,892.65 L 876.01,895.64 L 872.33,898.52 L 868.51,901.30 L 864.57,903.97 L 860.49,906.55 L 856.27,909.02 L 851.91,911.40 L 847.39,913.68 L 842.72,915.87 L 837.88,917.96 L 832.87,919.96 L 827.67,921.86 L 822.28,923.68 L 816.68,925.41 L 810.87,927.05 L 804.82,928.60 L 798.52,930.06 L 791.96,931.43 L 785.09,932.72 L 777.90,933.93 L 770.36,935.04 L 762.42,936.08 L 754.03,937.03 L 745.13,937.89 L 735.65,938.68 L 725.47,939.37 L 714.46,939.99 L 702.44,940.52 L 689.10,940.98 L 674.03,941.34 L 656.45,941.63 L 634.84,941.84 L 605.10,941.96 L 512.00,942.00 L 418.90,941.96 L 389.16,941.84 L 367.55,941.63 L 349.97,941.34 L 334.90,940.98 L 321.56,940.52 L 309.54,939.99 L 298.53,939.37 L 288.35,938.68 L 278.87,937.89 L 269.97,937.03 L 261.58,936.08 L 253.64,935.04 L 246.10,933.93 L 238.91,932.72 L 232.04,931.43 L 225.48,930.06 L 219.18,928.60 L 213.13,927.05 L 207.32,925.41 L 201.72,923.68 L 196.33,921.86 L 191.13,919.96 L 186.12,917.96 L 181.28,915.87 L 176.61,913.68 L 172.09,911.40 L 167.73,909.02 L 163.51,906.55 L 159.43,903.97 L 155.49,901.30 L 151.67,898.52 L 147.99,895.64 L 144.43,892.65 L 140.99,889.55 L 137.66,886.34 L 134.45,883.01 L 131.35,879.57 L 128.36,876.01 L 125.48,872.33 L 122.70,868.51 L 120.03,864.57 L 117.45,860.49 L 114.98,856.27 L 112.60,851.91 L 110.32,847.39 L 108.13,842.72 L 106.04,837.88 L 104.04,832.87 L 102.14,827.67 L 100.32,822.28 L 98.59,816.68 L 96.95,810.87 L 95.40,804.82 L 93.94,798.52 L 92.57,791.96 L 91.28,785.09 L 90.07,777.90 L 88.96,770.36 L 87.92,762.42 L 86.97,754.03 L 86.11,745.13 L 85.32,735.65 L 84.63,725.47 L 84.01,714.46 L 83.48,702.44 L 83.02,689.10 L 82.66,674.03 L 82.37,656.45 L 82.16,634.84 L 82.04,605.10 L 82.00,512.00 L 82.04,418.90 L 82.16,389.16 L 82.37,367.55 L 82.66,349.97 L 83.02,334.90 L 83.48,321.56 L 84.01,309.54 L 84.63,298.53 L 85.32,288.35 L 86.11,278.87 L 86.97,269.97 L 87.92,261.58 L 88.96,253.64 L 90.07,246.10 L 91.28,238.91 L 92.57,232.04 L 93.94,225.48 L 95.40,219.18 L 96.95,213.13 L 98.59,207.32 L 100.32,201.72 L 102.14,196.33 L 104.04,191.13 L 106.04,186.12 L 108.13,181.28 L 110.32,176.61 L 112.60,172.09 L 114.98,167.73 L 117.45,163.51 L 120.03,159.43 L 122.70,155.49 L 125.48,151.67 L 128.36,147.99 L 131.35,144.43 L 134.45,140.99 L 137.66,137.66 L 140.99,134.45 L 144.43,131.35 L 147.99,128.36 L 151.67,125.48 L 155.49,122.70 L 159.43,120.03 L 163.51,117.45 L 167.73,114.98 L 172.09,112.60 L 176.61,110.32 L 181.28,108.13 L 186.12,106.04 L 191.13,104.04 L 196.33,102.14 L 201.72,100.32 L 207.32,98.59 L 213.13,96.95 L 219.18,95.40 L 225.48,93.94 L 232.04,92.57 L 238.91,91.28 L 246.10,90.07 L 253.64,88.96 L 261.58,87.92 L 269.97,86.97 L 278.87,86.11 L 288.35,85.32 L 298.53,84.63 L 309.54,84.01 L 321.56,83.48 L 334.90,83.02 L 349.97,82.66 L 367.55,82.37 L 389.16,82.16 L 418.90,82.04 L 512.00,82.00 L 605.10,82.04 L 634.84,82.16 L 656.45,82.37 L 674.03,82.66 L 689.10,83.02 L 702.44,83.48 L 714.46,84.01 L 725.47,84.63 L 735.65,85.32 L 745.13,86.11 L 754.03,86.97 L 762.42,87.92 L 770.36,88.96 L 777.90,90.07 L 785.09,91.28 L 791.96,92.57 L 798.52,93.94 L 804.82,95.40 L 810.87,96.95 L 816.68,98.59 L 822.28,100.32 L 827.67,102.14 L 832.87,104.04 L 837.88,106.04 L 842.72,108.13 L 847.39,110.32 L 851.91,112.60 L 856.27,114.98 L 860.49,117.45 L 864.57,120.03 L 868.51,122.70 L 872.33,125.48 L 876.01,128.36 L 879.57,131.35 L 883.01,134.45 L 886.34,137.66 L 889.55,140.99 L 892.65,144.43 L 895.64,147.99 L 898.52,151.67 L 901.30,155.49 L 903.97,159.43 L 906.55,163.51 L 909.02,167.73 L 911.40,172.09 L 913.68,176.61 L 915.87,181.28 L 917.96,186.12 L 919.96,191.13 L 921.86,196.33 L 923.68,201.72 L 925.41,207.32 L 927.05,213.13 L 928.60,219.18 L 930.06,225.48 L 931.43,232.04 L 932.72,238.91 L 933.93,246.10 L 935.04,253.64 L 936.08,261.58 L 937.03,269.97 L 937.89,278.87 L 938.68,288.35 L 939.37,298.53 L 939.99,309.54 L 940.52,321.56 L 940.98,334.90 L 941.34,349.97 L 941.63,367.55 L 941.84,389.16 L 941.96,418.90 Z" fill="none" stroke="#9fb6ff" stroke-opacity="0.18" stroke-width="3"/>
</svg>